<svg width="1147" height="440" viewBox="0 0 1147 440" fill="none" xmlns="http://www.w3.org/2000/svg">
<path d="M262.109 131.736V142.031H221.176V131.736H262.109ZM247.262 115.535V159.012H236.064V115.535H247.262ZM309.605 155.771V165H268.754V157.125L288.072 136.412C290.014 134.252 291.545 132.352 292.666 130.711C293.787 129.043 294.594 127.553 295.086 126.24C295.605 124.9 295.865 123.629 295.865 122.426C295.865 120.621 295.564 119.076 294.963 117.791C294.361 116.479 293.473 115.467 292.297 114.756C291.148 114.045 289.727 113.689 288.031 113.689C286.227 113.689 284.668 114.127 283.355 115.002C282.07 115.877 281.086 117.094 280.402 118.652C279.746 120.211 279.418 121.975 279.418 123.943H267.564C267.564 120.389 268.412 117.135 270.107 114.182C271.803 111.201 274.195 108.836 277.285 107.086C280.375 105.309 284.039 104.42 288.277 104.42C292.461 104.42 295.988 105.104 298.859 106.471C301.758 107.811 303.945 109.752 305.422 112.295C306.926 114.811 307.678 117.818 307.678 121.318C307.678 123.287 307.363 125.215 306.734 127.102C306.105 128.961 305.203 130.82 304.027 132.68C302.879 134.512 301.484 136.371 299.844 138.258C298.203 140.145 296.385 142.1 294.389 144.123L284.012 155.771H309.605ZM357.184 129.891V140.227C357.184 144.711 356.705 148.58 355.748 151.834C354.791 155.061 353.41 157.713 351.605 159.791C349.828 161.842 347.709 163.359 345.248 164.344C342.787 165.328 340.053 165.82 337.045 165.82C334.639 165.82 332.396 165.52 330.318 164.918C328.24 164.289 326.367 163.318 324.699 162.006C323.059 160.693 321.637 159.039 320.434 157.043C319.258 155.02 318.355 152.613 317.727 149.824C317.098 147.035 316.783 143.836 316.783 140.227V129.891C316.783 125.406 317.262 121.564 318.219 118.365C319.203 115.139 320.584 112.5 322.361 110.449C324.166 108.398 326.299 106.895 328.76 105.938C331.221 104.953 333.955 104.461 336.963 104.461C339.369 104.461 341.598 104.775 343.648 105.404C345.727 106.006 347.6 106.949 349.268 108.234C350.936 109.52 352.357 111.174 353.533 113.197C354.709 115.193 355.611 117.586 356.24 120.375C356.869 123.137 357.184 126.309 357.184 129.891ZM345.33 141.785V128.291C345.33 126.131 345.207 124.244 344.961 122.631C344.742 121.018 344.4 119.65 343.936 118.529C343.471 117.381 342.896 116.451 342.213 115.74C341.529 115.029 340.75 114.51 339.875 114.182C339 113.854 338.029 113.689 336.963 113.689C335.623 113.689 334.434 113.949 333.395 114.469C332.383 114.988 331.521 115.822 330.811 116.971C330.1 118.092 329.553 119.596 329.17 121.482C328.814 123.342 328.637 125.611 328.637 128.291V141.785C328.637 143.945 328.746 145.846 328.965 147.486C329.211 149.127 329.566 150.535 330.031 151.711C330.523 152.859 331.098 153.803 331.754 154.541C332.438 155.252 333.217 155.771 334.092 156.1C334.994 156.428 335.979 156.592 337.045 156.592C338.357 156.592 339.52 156.332 340.531 155.812C341.57 155.266 342.445 154.418 343.156 153.27C343.895 152.094 344.441 150.562 344.797 148.676C345.152 146.789 345.33 144.492 345.33 141.785Z" fill="black" fill-opacity="0.87"/>
<path fill-rule="evenodd" clip-rule="evenodd" d="M102.332 253C102.332 230.356 120.689 212 143.332 212H427.332L368.748 296H143.332C120.689 296 102.332 277.644 102.332 255V253Z" fill="#C8E6C9"/>
<path d="M172.672 244.688V267.032C172.672 271.624 173.848 272.968 178.216 272.968C179.168 272.968 183.872 272.968 184.824 272.968C188.856 272.968 189.92 270.672 190.312 262.16C189.192 261.88 187.456 261.208 186.616 260.48C186.392 267.872 186.112 269.104 184.432 269.104C183.368 269.104 179.56 269.104 178.776 269.104C177.096 269.104 176.76 268.768 176.76 267.032V244.688H172.672ZM153.24 236.288V240.264H190.2V236.288H153.24ZM166.176 223.688C166.064 242.112 166.12 261.6 152.344 271.232C153.408 271.96 154.808 273.248 155.48 274.256C169.816 263.896 170.264 243.232 170.376 223.688H166.176ZM176.088 226.488C178.832 229.064 182.136 232.76 183.648 235.112L186.784 232.704C185.104 230.464 181.744 226.936 179.056 224.416L176.088 226.488ZM152.176 223.128C149.208 231.584 144.28 239.984 139.016 245.472C139.8 246.48 141.032 248.664 141.48 249.616C147.248 243.288 152.68 233.768 156.152 224.36L152.176 223.128ZM146.184 237.744V274.48H150.216V233.824L150.16 233.768L146.184 237.744ZM204.032 235V238.808H246.2V235H204.032ZM223.296 228.056C222.904 233.544 222.232 240.936 221.56 245.416H225.648C226.376 241.048 227.216 233.88 227.72 228.28L223.296 228.056ZM226.208 266.136C231.92 268.264 238.92 271.792 242.784 274.144L245.752 271.288C241.832 269.048 234.776 265.688 229.232 263.616L226.208 266.136ZM239.536 223.24C230.688 225.256 214.336 226.6 200.84 227.104C201.232 228.056 201.736 229.68 201.848 230.744C215.624 230.24 232.256 228.952 242.84 226.6L239.536 223.24ZM200.84 227.104V242.784C200.84 251.352 200.336 263.28 195.016 271.68C196.024 272.072 197.872 273.192 198.656 273.864C204.2 265.016 204.928 251.856 204.928 242.784V227.104H200.84ZM223.296 250.512V255.552C223.296 260.032 222.176 266.696 204.816 271.232C205.824 272.016 207.112 273.528 207.616 274.48C225.704 269.16 227.664 261.376 227.664 255.664V250.512H223.296ZM209.24 244.296V263.616H213.44V248.216H237.52V263.84H241.888V244.296H209.24ZM251.856 242.168V246.088H302.144V242.168H251.856ZM256.784 230.632V234.496H289.208V230.632H256.784ZM271.008 222.96V244.24H275.32V222.96H271.008ZM291.504 251.576C286.184 254.376 276.72 257.4 268.32 259.472C268.824 260.312 269.44 261.768 269.664 262.664C278.4 260.648 288.312 257.736 295.144 254.656L291.504 251.576ZM295.816 225.144C285.512 239.816 268.992 251.464 250.792 258.24C251.688 259.136 253.144 260.872 253.816 261.824C271.736 254.432 288.424 242.616 299.624 227.104L295.816 225.144ZM266.92 250.904V267.312C266.92 272.408 268.992 273.696 276.272 273.696C277.84 273.696 289.992 273.696 291.616 273.696C298 273.696 299.512 271.68 300.184 263.672C299.008 263.448 297.216 262.832 296.152 262.104C295.76 268.712 295.2 269.832 291.392 269.832C288.704 269.832 278.4 269.832 276.384 269.832C272.016 269.832 271.232 269.384 271.232 267.312V250.904H266.92ZM326.448 225.928V229.792H358.088V225.928H326.448ZM339.832 227.496V274.368H343.808V227.496H339.832ZM328.408 236.68V266.416H332.328V240.488H353.552V236.68H328.408ZM351.984 236.68V261.544C351.984 262.16 351.816 262.384 351.2 262.384C350.584 262.384 348.736 262.384 346.608 262.328C347.112 263.392 347.672 264.96 347.84 266.024C350.92 266.024 352.88 266.024 354.224 265.352C355.568 264.68 355.904 263.616 355.904 261.656V236.68H351.984ZM319.224 223.072V245.472C319.224 255.496 318.328 264.736 310.544 271.624C311.552 272.24 313.008 273.584 313.68 274.424C322.08 266.808 323.144 256.56 323.144 245.472V223.072H319.224ZM310.264 229.4V256.616H314.072V229.4H310.264Z" fill="#2E7D32"/>
<path d="M528.25 69.25L303.75 388.75" stroke="#C8E6C9" stroke-width="3" stroke-linecap="square"/>
<path d="M617.992 131.736V142.031H577.059V131.736H617.992ZM603.145 115.535V159.012H591.947V115.535H603.145ZM664.873 148.635C664.873 152.381 663.998 155.539 662.248 158.109C660.498 160.652 658.092 162.58 655.029 163.893C651.994 165.178 648.549 165.82 644.693 165.82C640.838 165.82 637.379 165.178 634.316 163.893C631.254 162.58 628.834 160.652 627.057 158.109C625.279 155.539 624.391 152.381 624.391 148.635C624.391 146.119 624.896 143.85 625.908 141.826C626.92 139.775 628.328 138.025 630.133 136.576C631.965 135.1 634.111 133.979 636.572 133.213C639.033 132.42 641.713 132.023 644.611 132.023C648.494 132.023 651.967 132.707 655.029 134.074C658.092 135.441 660.498 137.369 662.248 139.857C663.998 142.346 664.873 145.271 664.873 148.635ZM652.979 147.855C652.979 146.023 652.623 144.451 651.912 143.139C651.229 141.799 650.258 140.773 649 140.062C647.742 139.352 646.279 138.996 644.611 138.996C642.943 138.996 641.48 139.352 640.223 140.062C638.965 140.773 637.98 141.799 637.27 143.139C636.586 144.451 636.244 146.023 636.244 147.855C636.244 149.66 636.586 151.219 637.27 152.531C637.98 153.844 638.965 154.855 640.223 155.566C641.508 156.25 642.998 156.592 644.693 156.592C646.389 156.592 647.852 156.25 649.082 155.566C650.34 154.855 651.297 153.844 651.953 152.531C652.637 151.219 652.979 149.66 652.979 147.855ZM663.602 121.113C663.602 124.148 662.795 126.842 661.182 129.193C659.568 131.518 657.326 133.336 654.455 134.648C651.611 135.961 648.357 136.617 644.693 136.617C641.002 136.617 637.721 135.961 634.85 134.648C631.979 133.336 629.736 131.518 628.123 129.193C626.51 126.842 625.703 124.148 625.703 121.113C625.703 117.504 626.51 114.469 628.123 112.008C629.764 109.52 632.006 107.633 634.85 106.348C637.721 105.062 640.975 104.42 644.611 104.42C648.303 104.42 651.57 105.062 654.414 106.348C657.285 107.633 659.527 109.52 661.141 112.008C662.781 114.469 663.602 117.504 663.602 121.113ZM651.789 121.646C651.789 120.033 651.502 118.639 650.928 117.463C650.354 116.26 649.533 115.33 648.467 114.674C647.428 114.018 646.143 113.689 644.611 113.689C643.135 113.689 641.863 114.004 640.797 114.633C639.758 115.262 638.951 116.178 638.377 117.381C637.83 118.557 637.557 119.979 637.557 121.646C637.557 123.26 637.83 124.682 638.377 125.912C638.951 127.115 639.771 128.059 640.838 128.742C641.904 129.426 643.189 129.768 644.693 129.768C646.197 129.768 647.469 129.426 648.508 128.742C649.574 128.059 650.381 127.115 650.928 125.912C651.502 124.682 651.789 123.26 651.789 121.646ZM713.066 129.891V140.227C713.066 144.711 712.588 148.58 711.631 151.834C710.674 155.061 709.293 157.713 707.488 159.791C705.711 161.842 703.592 163.359 701.131 164.344C698.67 165.328 695.936 165.82 692.928 165.82C690.521 165.82 688.279 165.52 686.201 164.918C684.123 164.289 682.25 163.318 680.582 162.006C678.941 160.693 677.52 159.039 676.316 157.043C675.141 155.02 674.238 152.613 673.609 149.824C672.98 147.035 672.666 143.836 672.666 140.227V129.891C672.666 125.406 673.145 121.564 674.102 118.365C675.086 115.139 676.467 112.5 678.244 110.449C680.049 108.398 682.182 106.895 684.643 105.938C687.104 104.953 689.838 104.461 692.846 104.461C695.252 104.461 697.48 104.775 699.531 105.404C701.609 106.006 703.482 106.949 705.15 108.234C706.818 109.52 708.24 111.174 709.416 113.197C710.592 115.193 711.494 117.586 712.123 120.375C712.752 123.137 713.066 126.309 713.066 129.891ZM701.213 141.785V128.291C701.213 126.131 701.09 124.244 700.844 122.631C700.625 121.018 700.283 119.65 699.818 118.529C699.354 117.381 698.779 116.451 698.096 115.74C697.412 115.029 696.633 114.51 695.758 114.182C694.883 113.854 693.912 113.689 692.846 113.689C691.506 113.689 690.316 113.949 689.277 114.469C688.266 114.988 687.404 115.822 686.693 116.971C685.982 118.092 685.436 119.596 685.053 121.482C684.697 123.342 684.52 125.611 684.52 128.291V141.785C684.52 143.945 684.629 145.846 684.848 147.486C685.094 149.127 685.449 150.535 685.914 151.711C686.406 152.859 686.98 153.803 687.637 154.541C688.32 155.252 689.1 155.771 689.975 156.1C690.877 156.428 691.861 156.592 692.928 156.592C694.24 156.592 695.402 156.332 696.414 155.812C697.453 155.266 698.328 154.418 699.039 153.27C699.777 152.094 700.324 150.562 700.68 148.676C701.035 146.789 701.213 144.492 701.213 141.785ZM761.301 129.891V140.227C761.301 144.711 760.822 148.58 759.865 151.834C758.908 155.061 757.527 157.713 755.723 159.791C753.945 161.842 751.826 163.359 749.365 164.344C746.904 165.328 744.17 165.82 741.162 165.82C738.756 165.82 736.514 165.52 734.436 164.918C732.357 164.289 730.484 163.318 728.816 162.006C727.176 160.693 725.754 159.039 724.551 157.043C723.375 155.02 722.473 152.613 721.844 149.824C721.215 147.035 720.9 143.836 720.9 140.227V129.891C720.9 125.406 721.379 121.564 722.336 118.365C723.32 115.139 724.701 112.5 726.479 110.449C728.283 108.398 730.416 106.895 732.877 105.938C735.338 104.953 738.072 104.461 741.08 104.461C743.486 104.461 745.715 104.775 747.766 105.404C749.844 106.006 751.717 106.949 753.385 108.234C755.053 109.52 756.475 111.174 757.65 113.197C758.826 115.193 759.729 117.586 760.357 120.375C760.986 123.137 761.301 126.309 761.301 129.891ZM749.447 141.785V128.291C749.447 126.131 749.324 124.244 749.078 122.631C748.859 121.018 748.518 119.65 748.053 118.529C747.588 117.381 747.014 116.451 746.33 115.74C745.646 115.029 744.867 114.51 743.992 114.182C743.117 113.854 742.146 113.689 741.08 113.689C739.74 113.689 738.551 113.949 737.512 114.469C736.5 114.988 735.639 115.822 734.928 116.971C734.217 118.092 733.67 119.596 733.287 121.482C732.932 123.342 732.754 125.611 732.754 128.291V141.785C732.754 143.945 732.863 145.846 733.082 147.486C733.328 149.127 733.684 150.535 734.148 151.711C734.641 152.859 735.215 153.803 735.871 154.541C736.555 155.252 737.334 155.771 738.209 156.1C739.111 156.428 740.096 156.592 741.162 156.592C742.475 156.592 743.637 156.332 744.648 155.812C745.688 155.266 746.562 154.418 747.273 153.27C748.012 152.094 748.559 150.562 748.914 148.676C749.27 146.789 749.447 144.492 749.447 141.785Z" fill="black" fill-opacity="0.87"/>
<path fill-rule="evenodd" clip-rule="evenodd" d="M482.332 253C482.332 230.356 500.689 212 523.332 212H807.332L748.748 296H523.332C500.689 296 482.332 277.644 482.332 255V253Z" fill="#C8E6C9"/>
<path d="M529.768 241.888V245.584H557.488V241.888H529.768ZM520.36 254.656V258.576H569.864V254.656H520.36ZM542.872 250.568V269.384C542.872 270.224 542.592 270.504 541.472 270.56C540.352 270.616 536.544 270.616 532.232 270.504C532.904 271.624 533.744 273.36 534.024 274.536C539.12 274.536 542.368 274.48 544.384 273.864C546.512 273.248 547.184 272.016 547.184 269.496V250.568H542.872ZM556.2 241.888V242.728C553.568 245.584 548.192 249.28 543.488 251.296C544.216 251.912 545.336 253.032 545.84 253.76C551.16 251.464 557.04 247.6 560.848 243.736L558.16 241.664L557.264 241.888H556.2ZM521.48 232.312V244.8H525.456V236.12H564.768V244.8H568.912V232.312H521.48ZM561.52 223.352C559.952 226.32 557.096 230.464 554.856 233.096L558.16 234.496C560.512 232.032 563.536 228.28 565.888 224.808L561.52 223.352ZM525.288 225.312C527.36 227.72 529.6 231.08 530.496 233.208L534.248 231.416C533.296 229.176 531 225.984 528.816 223.632L525.288 225.312ZM539.68 224.08C541.528 226.824 543.376 230.52 544.048 232.872L547.912 231.36C547.24 229.008 545.224 225.368 543.32 222.736L539.68 224.08ZM584.648 233.88V237.968H623.456V233.88H584.648ZM582.184 250.288V254.32H621.44V250.288H582.184ZM576.08 268.6V272.688H626.088V268.6H576.08ZM598.928 223.016V270.672H603.24V223.016H598.928ZM586.328 223.912C584.2 231.92 580.56 239.704 575.968 244.688C577.032 245.248 578.936 246.48 579.776 247.208C584.256 241.832 588.176 233.544 590.64 224.864L586.328 223.912ZM654.088 224.696C653.696 232.144 653.696 259.08 630.848 270.728C632.136 271.68 633.536 272.968 634.264 274.032C657.448 261.432 658.288 233.488 658.736 224.696H654.088ZM658.568 225.816L654.536 226.208C654.928 231.36 656.496 262.664 680.24 274.032C680.912 272.856 682.2 271.456 683.432 270.504C660.36 259.92 658.736 230.184 658.568 225.816ZM687.184 252.864V256.392H714.68V252.864H687.184ZM687.52 233.32V236.736H714.512V233.32H687.52ZM697.6 248.048C695.248 253.2 691.72 260.088 689.2 264.344L692.896 265.632C695.472 261.208 699 254.376 701.52 248.888L697.6 248.048ZM706 254.936C704.264 264.456 699 269.048 687.296 271.008C688.08 271.848 688.92 273.36 689.2 274.48C702.136 271.736 708.016 266.36 709.92 255.44L706 254.936ZM709.528 224.08C708.52 226.264 706.672 229.512 705.272 231.528L708.072 232.928C709.64 231.024 711.488 228.224 713.112 225.648L709.528 224.08ZM699.112 222.96V248.72H702.976V222.96H699.112ZM689.592 225.648C691.16 227.944 692.616 231.024 693.12 233.04L696.424 231.528C695.864 229.512 694.352 226.544 692.784 224.304L689.592 225.648ZM699.168 234.832C696.704 239.144 691.552 243.624 686.904 245.64C687.688 246.48 688.696 247.88 689.2 248.832C694.016 246.2 699.28 241.216 702.024 236.512L699.168 234.832ZM702.528 236.792L700.512 238.584C702.864 240.152 708.688 244.52 710.704 246.424L713 243.344C711.376 242.168 704.544 237.856 702.528 236.792ZM718.768 233.32V237.24H738.704V233.32H718.768ZM720.168 222.96C718.6 232.872 715.688 242.336 710.928 248.272C711.936 248.944 713.672 250.344 714.344 251.128C719.272 244.576 722.576 234.552 724.424 223.576L720.168 222.96ZM731.2 235.56C728.904 253.312 723.528 264.624 710.2 270.896C711.04 271.792 712.272 273.64 712.72 274.648C726.832 267.368 732.768 255.328 735.456 236.008L731.2 235.56ZM721.008 236.792L717.2 237.408C720 254.376 725.32 268.04 736.296 274.48C736.912 273.36 738.256 271.736 739.264 270.896C728.848 265.408 723.472 252.192 721.008 236.792ZM692.56 263.56C699.056 266.192 705.72 269.944 709.584 273.08L712.496 270.056C708.464 266.976 701.52 263.28 694.8 260.704L692.56 263.56Z" fill="#2E7D32"/>
<path d="M908.25 69.25L683.75 388.75" stroke="#C8E6C9" stroke-width="3" stroke-linecap="square"/>
<g clip-path="url(#clip0_146_3768)">
<path d="M932.992 234.344V259.88H936.576V234.344H932.992ZM947.216 231.32V235.184H965.696V231.32H947.216ZM943.408 273.656V277.576H966.872V273.656H943.408ZM947.664 251.872V255.68H965.36V251.872H947.664ZM954.272 232.832V275.728H958.248V232.832H954.272ZM942.064 227.96V251.872C942.064 261.952 940.832 270.576 931.088 276.512C931.928 277.24 933.216 278.64 933.72 279.536C944.472 272.928 945.928 263.24 945.928 251.928V227.96H942.064ZM915.352 231.6V235.464H931.928V231.6H915.352ZM915.912 249.632V253.44H930.92V249.632H915.912ZM914.512 270.464L915.408 274.44C920.392 272.928 926.832 271.024 933.048 269.176L932.544 265.424C925.88 267.328 919.16 269.344 914.512 270.464ZM921.624 233.28V270.296L925.544 269.456V233.28H921.624ZM997.728 233.056C997.168 252.208 995.32 267.664 987.368 277.072C988.376 277.632 990.336 278.92 991.064 279.592C999.072 269.176 1001.03 253.664 1001.93 233.224L997.728 233.056ZM991.344 231.6V235.576H1013.46V231.6H991.344ZM1009.77 246.888L1008.54 250.64H1017.78V246.888H1009.77ZM1016.6 246.888V247.784C1013.69 262.344 1005.57 271.64 995.264 276.4C996.16 277.072 997.672 278.64 998.232 279.592C1008.7 274.328 1017.33 264.136 1020.8 247.784L1018.22 246.72L1017.44 246.888H1016.6ZM1000.81 246.216L997.224 247.28C1001.48 261.448 1009.15 273.712 1020.18 279.424C1020.86 278.36 1022.14 276.792 1023.1 276.008C1012.4 271.024 1004.62 259.208 1000.81 246.216ZM1011.67 231.6C1010.33 237.592 1008.09 245.656 1006.35 250.64H1010.55C1012.06 245.824 1014.36 237.872 1015.98 231.6H1011.67ZM972.416 265.088C972.416 264.248 975.272 262.96 975.272 262.96V262.904C980.76 257.36 986.36 249.632 990.952 241.848L987.424 239.72C983.448 247.448 977.344 255.456 975.44 257.528C973.648 259.6 972.304 261.056 971.072 261.28C971.576 262.344 972.192 264.248 972.416 265.088ZM972.416 265.088C973.648 264.192 975.552 263.464 990.448 259.04C990.28 258.144 990.168 256.52 990.224 255.456L974.096 259.936L972.08 261.56L972.416 265.088ZM972.08 251.368C972.08 250.528 974.6 249.184 974.6 249.184V249.072C978.688 243.976 982.832 236.752 985.856 229.752L981.936 227.904C979.528 234.736 975.328 242.016 974.04 243.92C972.752 245.824 971.744 247.168 970.736 247.392C971.184 248.512 971.856 250.472 972.08 251.368ZM972.08 251.368C973.032 250.92 974.6 250.528 984.176 249.296C984.176 248.456 984.288 246.888 984.512 245.824L973.984 246.944L971.968 248.232L972.08 251.368ZM971.296 271.864L972.36 276.008C977.624 273.992 984.624 271.304 991.232 268.728L990.448 265.032C983.392 267.664 976.112 270.352 971.296 271.864ZM1027.18 257.864V261.392H1054.68V257.864H1027.18ZM1027.52 238.32V241.736H1054.51V238.32H1027.52ZM1037.6 253.048C1035.25 258.2 1031.72 265.088 1029.2 269.344L1032.9 270.632C1035.47 266.208 1039 259.376 1041.52 253.888L1037.6 253.048ZM1046 259.936C1044.26 269.456 1039 274.048 1027.3 276.008C1028.08 276.848 1028.92 278.36 1029.2 279.48C1042.14 276.736 1048.02 271.36 1049.92 260.44L1046 259.936ZM1049.53 229.08C1048.52 231.264 1046.67 234.512 1045.27 236.528L1048.07 237.928C1049.64 236.024 1051.49 233.224 1053.11 230.648L1049.53 229.08ZM1039.11 227.96V253.72H1042.98V227.96H1039.11ZM1029.59 230.648C1031.16 232.944 1032.62 236.024 1033.12 238.04L1036.42 236.528C1035.86 234.512 1034.35 231.544 1032.78 229.304L1029.59 230.648ZM1039.17 239.832C1036.7 244.144 1031.55 248.624 1026.9 250.64C1027.69 251.48 1028.7 252.88 1029.2 253.832C1034.02 251.2 1039.28 246.216 1042.02 241.512L1039.17 239.832ZM1042.53 241.792L1040.51 243.584C1042.86 245.152 1048.69 249.52 1050.7 251.424L1053 248.344C1051.38 247.168 1044.54 242.856 1042.53 241.792ZM1058.77 238.32V242.24H1078.7V238.32H1058.77ZM1060.17 227.96C1058.6 237.872 1055.69 247.336 1050.93 253.272C1051.94 253.944 1053.67 255.344 1054.34 256.128C1059.27 249.576 1062.58 239.552 1064.42 228.576L1060.17 227.96ZM1071.2 240.56C1068.9 258.312 1063.53 269.624 1050.2 275.896C1051.04 276.792 1052.27 278.64 1052.72 279.648C1066.83 272.368 1072.77 260.328 1075.46 241.008L1071.2 240.56ZM1061.01 241.792L1057.2 242.408C1060 259.376 1065.32 273.04 1076.3 279.48C1076.91 278.36 1078.26 276.736 1079.26 275.896C1068.85 270.408 1063.47 257.192 1061.01 241.792ZM1032.56 268.56C1039.06 271.192 1045.72 274.944 1049.58 278.08L1052.5 275.056C1048.46 271.976 1041.52 268.28 1034.8 265.704L1032.56 268.56ZM1094.94 237.76H1122.83V240.896H1094.94V237.76ZM1094.94 232.328H1122.83V235.352H1094.94V232.328ZM1090.91 229.808V243.416H1127.03V229.808H1090.91ZM1093.88 259.768H1124.51V262.96H1093.88V259.768ZM1093.88 254.112H1124.51V257.248H1093.88V254.112ZM1089.9 251.48V265.536H1128.66V251.48H1089.9ZM1106.82 252.432V276.568H1110.96V252.432H1106.82ZM1083.91 245.768V249.016H1134.14V245.768H1083.91ZM1088.34 268.616V271.584H1129.89V268.616H1088.34ZM1083.58 274.832V278.136H1134.42V274.832H1083.58Z" fill="black" fill-opacity="0.54"/>
<path d="M973.402 178.861V196H897.535V181.375L933.412 142.908C937.018 138.896 939.861 135.367 941.943 132.32C944.025 129.223 945.523 126.455 946.438 124.018C947.402 121.529 947.885 119.168 947.885 116.934C947.885 113.582 947.326 110.713 946.209 108.326C945.092 105.889 943.441 104.01 941.258 102.689C939.125 101.369 936.484 100.709 933.336 100.709C929.984 100.709 927.09 101.521 924.652 103.146C922.266 104.771 920.438 107.031 919.168 109.926C917.949 112.82 917.34 116.096 917.34 119.752H895.326C895.326 113.15 896.9 107.107 900.049 101.623C903.197 96.0879 907.641 91.6953 913.379 88.4453C919.117 85.1445 925.922 83.4941 933.793 83.4941C941.562 83.4941 948.113 84.7637 953.445 87.3027C958.828 89.791 962.891 93.3965 965.633 98.1191C968.426 102.791 969.822 108.377 969.822 114.877C969.822 118.533 969.238 122.113 968.07 125.617C966.902 129.07 965.227 132.523 963.043 135.977C960.91 139.379 958.32 142.832 955.273 146.336C952.227 149.84 948.85 153.471 945.143 157.229L925.871 178.861H973.402ZM1061.76 130.797V149.992C1061.76 158.32 1060.87 165.506 1059.1 171.549C1057.32 177.541 1054.75 182.467 1051.4 186.326C1048.1 190.135 1044.17 192.953 1039.6 194.781C1035.03 196.609 1029.95 197.523 1024.36 197.523C1019.89 197.523 1015.73 196.965 1011.87 195.848C1008.01 194.68 1004.53 192.877 1001.43 190.439C998.387 188.002 995.746 184.93 993.512 181.223C991.328 177.465 989.652 172.996 988.484 167.816C987.316 162.637 986.732 156.695 986.732 149.992V130.797C986.732 122.469 987.621 115.334 989.398 109.393C991.227 103.4 993.791 98.5 997.092 94.6914C1000.44 90.8828 1004.4 88.0898 1008.97 86.3125C1013.54 84.4844 1018.62 83.5703 1024.21 83.5703C1028.68 83.5703 1032.82 84.1543 1036.62 85.3223C1040.48 86.4395 1043.96 88.1914 1047.06 90.5781C1050.16 92.9648 1052.8 96.0371 1054.98 99.7949C1057.17 103.502 1058.84 107.945 1060.01 113.125C1061.18 118.254 1061.76 124.145 1061.76 130.797ZM1039.75 152.887V127.826C1039.75 123.814 1039.52 120.311 1039.06 117.314C1038.66 114.318 1038.02 111.779 1037.16 109.697C1036.29 107.564 1035.23 105.838 1033.96 104.518C1032.69 103.197 1031.24 102.232 1029.62 101.623C1027.99 101.014 1026.19 100.709 1024.21 100.709C1021.72 100.709 1019.51 101.191 1017.58 102.156C1015.7 103.121 1014.1 104.67 1012.78 106.803C1011.46 108.885 1010.45 111.678 1009.74 115.182C1009.08 118.635 1008.75 122.85 1008.75 127.826V152.887C1008.75 156.898 1008.95 160.428 1009.36 163.475C1009.81 166.521 1010.47 169.137 1011.34 171.32C1012.25 173.453 1013.32 175.205 1014.54 176.576C1015.8 177.896 1017.25 178.861 1018.88 179.471C1020.55 180.08 1022.38 180.385 1024.36 180.385C1026.8 180.385 1028.96 179.902 1030.84 178.938C1032.77 177.922 1034.39 176.348 1035.71 174.215C1037.08 172.031 1038.1 169.188 1038.76 165.684C1039.42 162.18 1039.75 157.914 1039.75 152.887ZM1149.36 134.225V153.344H1073.34V134.225H1149.36ZM1121.79 104.137V184.879H1100.99V104.137H1121.79Z" fill="black" fill-opacity="0.87"/>
</g>
<defs>
<clipPath id="clip0_146_3768">
<rect width="377" height="274" fill="white" transform="translate(770 42)"/>
</clipPath>
</defs>
</svg>
